# xmcd
#
# Track frame offsets: 
#        150
#        4227
#        22254
#        34605
#        46190
#        58429
#        78081
#        96639
#        98758
#        111538
#        124266
#        141215
#        153069
#        166708
#        168665
#        183111
#
# Disc length: 2682 seconds
#
# Revision: 0
# Processed by: cddbd v1.5.2PL0 Copyright (c) Steve Scherf et al.
# Submitted via: ExactAudioCopy v0.99pb4
#
DISCID=d20a7810
DTITLE=GZA Genius - Pro Tools
DYEAR=2008
DGENRE=Hip-Hop/Rap
TTITLE0=Intromental
TTITLE1=Pencil
TTITLE2=Alphabets
TTITLE3=Groundbreaking
TTITLE4=7 Pounds
TTITLE5=0% Finance
TTITLE6=Short Race
TTITLE7=Interlude
TTITLE8=Paper Plate
TTITLE9=Columbian Ties
TTITLE10=Firehouse
TTITLE11=Path Of Destruction
TTITLE12=Cinema
TTITLE13=Intermission (Drive In Movie)
TTITLE14=Life Is A Movie
TTITLE15=Elastic Audio - Live Performance (Bonus Track)
EXTD=
EXTT0=
EXTT1=
EXTT2=
EXTT3=
EXTT4=
EXTT5=
EXTT6=
EXTT7=
EXTT8=
EXTT9=
EXTT10=
EXTT11=
EXTT12=
EXTT13=
EXTT14=
EXTT15=
PLAYORDER=
